<?xml version="1.0" encoding="utf-8"?>
<!-- Generator: Adobe Illustrator 25.0.1, SVG Export Plug-In . SVG Version: 6.00 Build 0)  -->
<svg version="1.1" id="Ebene_1" xmlns="http://www.w3.org/2000/svg" xmlns:xlink="http://www.w3.org/1999/xlink" x="0px" y="0px"
	 viewBox="0 0 108 16" style="enable-background:new 0 0 108 16;" xml:space="preserve">
<style type="text/css">
	.st0{enable-background:new    ;}
</style>
<g class="st0">
	<path d="M1,1h6.8c2,0,4.9,0.7,4.9,3.1c0,1-0.4,2.1-1.4,2.5c0.8,0.4,1.5,1,1.5,2.3c0,2.6-3.1,3.1-5.3,3.1H1V1z M7.8,5.8
		c0.9,0,1.6-0.3,1.6-1.2c0-1-1-1.2-1.8-1.2H4.4v2.3H7.8z M4.4,7.5v2.4h3.4c0.9,0,1.6-0.4,1.6-1.2c0-0.9-0.8-1.2-1.6-1.2H4.4z"/>
	<path d="M14,8v-7h3.4v7.5c0,1.3,1.5,1.8,2.6,1.8s2.4-0.7,2.4-1.8V0.9h3.4v7c0,1.7-1.6,4.2-5.9,4.2C15.5,12.2,14,9.7,14,8z"/>
	<path d="M37.6,1.2v6.9c0,2.6-2.8,4.1-5.8,4.1s-5.4-1.7-5.6-4.5h3.2C29.5,9,30.8,9.9,32,9.9c1.2,0,2.5-1,2.5-2.2V3.7H30l0.1-2.6
		H37.6z"/>
	<path d="M39.2,8v-7h3.4v7.5c0,1.3,1.5,1.8,2.6,1.8s2.4-0.7,2.4-1.8V0.9h3.4v7c0,1.7-1.6,4.2-5.9,4.2C40.7,12.2,39.2,9.7,39.2,8z"/>
	<path d="M66.1,4.1c0-0.7-0.6-1.2-2.3-1.2c-1.9,0-2.8,0.5-2.8,1.5h-3.1c0-2.5,1.9-4,5.9-4c3.6,0,5.5,1.6,5.5,3.6
		c0,3.8-6.3,3.1-6.9,5.4h6.8V12H57.7v-1.3C57.7,5.4,66.1,6.6,66.1,4.1z"/>
</g>
<g class="st0">
	<path d="M83.5,6.4c0,3.7-2.8,5.8-6.4,5.8c-4.2,0-6.4-2.7-6.4-5.8c0-3.2,2.2-5.8,6.4-5.8C81.3,0.6,83.5,3.3,83.5,6.4z M77.1,9.7
		c2.1,0,3.3-1.5,3.3-3.3c0-1.8-1.2-3.3-3.3-3.3c-2.1,0-3.3,1.4-3.3,3.3C73.9,8.3,75,9.7,77.1,9.7z"/>
</g>
<g class="st0">
	<path d="M92.8,4.1c0-0.7-0.6-1.2-2.3-1.2c-1.9,0-2.8,0.5-2.8,1.5h-3.1c0-2.5,1.9-4,5.9-4c3.6,0,5.5,1.6,5.5,3.6
		c0,3.8-6.3,3.1-6.9,5.4h6.8V12H84.4v-1.3C84.4,5.4,92.8,6.6,92.8,4.1z"/>
	<path d="M97.6,12V9.5h2.8V4C100.4,4.7,99,5,97.6,5V2.5c2.1,0,2.8-0.3,2.8-1.5h3.1v8.5h2.8V12H97.6z"/>
</g>
</svg>
