<svg xmlns="http://www.w3.org/2000/svg" viewBox="0 0 239.04 59.71"><defs><style>.cls-1{fill:#fff;}</style></defs><title>feg-jugend-logo</title><g id="Ebene_2" data-name="Ebene 2"><g id="Ebene_1-2" data-name="Ebene 1"><path class="cls-1" d="M96.59,58.21V22.59h16.8v-4.4H96.59V.18c14.31,1.16,25.58,13.7,25.58,29S110.9,57,96.59,58.21M94.6,0C93.79,0,93,0,92.19.09V.18h0v18H75.41v4.4H92.2V58.21C77.9,57,66.65,44.49,66.65,29.19q0-.74,0-1.47l0-.4c0-.35,0-.71.08-1.06,0-.11,0-.22,0-.33,0-.38.08-.77.14-1.15a.5.5,0,0,1,0-.12A30.28,30.28,0,0,1,82.56,2.22C71,6.68,62.82,17.37,62.82,29.85c0,16.49,14.23,29.86,31.78,29.86s31.78-13.37,31.78-29.86S112.15,0,94.6,0"/><path class="cls-1" d="M140.55,44.76a23.81,23.81,0,0,0,2.75.27C147.1,45,149,42.2,149,38V18.46h-3.32V37.79c0,2.57-1,4.07-3.32,4.07a4.17,4.17,0,0,1-1.2-.19l-.64-.19Z"/><path class="cls-1" d="M167.57,44.76c0-.79-.15-3-.15-3.88V25.54h-3.16V37.19c0,3.13-1.4,5.13-4.08,5.13-2.15,0-3.16-1.55-3.16-4.26V25.54h-3.17V39c0,3.81,2,6.07,5.62,6.07a4.92,4.92,0,0,0,4.86-3.13h.08l.11,2.86Z"/><path class="cls-1" d="M182.84,45c0,3.47-1.85,5.47-5.35,5.47a10.68,10.68,0,0,1-5.32-1.66L172,52a18.27,18.27,0,0,0,5.62,1.17c4.9,0,8.21-2.86,8.21-7.39V28.82c0-1,.15-2.52.15-3.28H183l-.11,2.79h-.07a5.58,5.58,0,0,0-4.72-3c-4.48,0-7,3.5-7,9.87S173.53,45,177.71,45c2.19,0,3.81-1.1,5.06-3.24h.07Zm-4.37-2.48c-2.91,0-4.23-2.45-4.23-7.32s1.43-7.31,4.19-7.31c3,0,4.26,2.45,4.26,7.31s-1.32,7.32-4.22,7.32"/><path class="cls-1" d="M202.17,41a8.2,8.2,0,0,1-4.4,1.59c-3.47,0-5.25-2-5.25-6.53h10.86v-1.5c0-6.34-2.71-9.31-6.75-9.31-4.63,0-7.42,3.69-7.42,9.87S192,45,197,45a13.13,13.13,0,0,0,5.35-1.13Zm-9.65-7.35c0-4,1.51-6,3.93-6s3.77,2,3.77,6Z"/><path class="cls-1" d="M220.46,44.76V31.31c0-3.74-2-6-5.62-6A4.91,4.91,0,0,0,210,28.4h-.08l-.11-2.86h-3c0,.68.15,3,.15,3.88V44.76h3.16V33c0-3.13,1.51-5.05,4.08-5.05,2.11,0,3.16,1.47,3.16,4.22V44.76Z"/><path class="cls-1" d="M239,44.76c0-.64-.15-2.52-.15-3.32V16.49h-3.16V28.18h-.08c-1.32-2-2.64-2.9-4.9-2.9-4.19,0-6.63,3.57-6.63,9.87S226.56,45,230.75,45a5.41,5.41,0,0,0,5.05-3.09h.08l.11,2.82Zm-7.54-2.29c-2.9,0-4.22-2.46-4.22-7.32,0-5.09,1.51-7.31,4.18-7.31,3,0,4.27,2.45,4.27,7.31s-1.32,7.32-4.23,7.32"/><polygon class="cls-1" points="3.31 44.76 3.31 32.55 11.34 32.55 11.34 29.69 3.31 29.69 3.31 21.32 11.75 21.32 11.75 18.46 0 18.46 0 44.76 3.31 44.76"/><path class="cls-1" d="M26.08,41a8.2,8.2,0,0,1-4.41,1.59c-3.47,0-5.24-2-5.24-6.53H27.29v-1.5c0-6.34-2.71-9.31-6.75-9.31-4.64,0-7.42,3.69-7.42,9.87S15.9,45,20.88,45a13.13,13.13,0,0,0,5.35-1.13Zm-9.65-7.35c0-4,1.51-6,3.92-6s3.77,2,3.77,6Z"/><path class="cls-1" d="M45.5,41.45a8,8,0,0,1-3.32.72c-5.32,0-8.41-4-8.41-11.28,0-6,3.58-9.84,8.22-9.84a13.91,13.91,0,0,1,6.14,1.62V19.36A14.3,14.3,0,0,0,42,18.19c-7,0-11.64,5.35-11.64,13.38S34.64,45,42.07,45a20.28,20.28,0,0,0,6.59-1.35V30.29H41.08v2.86H45.5Z"/></g></g></svg>